<svg xmlns="http://www.w3.org/2000/svg" version="1.1" xmlns:xlink="http://www.w3.org/1999/xlink" xmlns:svgjs="http://svgjs.dev/svgjs" width="1500" height="1500" viewBox="0 0 1500 1500"><rect width="1500" height="1500" fill="#dfdad6"></rect><g transform="matrix(0.6666666666666666,0,0,0.6666666666666666,250.01369826779143,417.6026990553306)"><svg viewBox="0 0 371 247" data-background-color="#dfdad6" preserveAspectRatio="xMidYMid meet" height="998" width="1500" xmlns="http://www.w3.org/2000/svg" xmlns:xlink="http://www.w3.org/1999/xlink"><g id="tight-bounds" transform="matrix(1,0,0,1,-0.005082057350620062,-0.09999999999999432)"><svg viewBox="0 0 371.01016411470124 247.2" height="247.2" width="371.01016411470124"><g><svg viewBox="0 0 395.52 263.53063462103074" height="247.2" width="371.01016411470124"><g transform="matrix(1,0,0,1,0,196.07978548080737)"><svg viewBox="0 0 395.52 67.45084914022335" height="67.45084914022335" width="395.52"><g id="textblocktransform"><svg viewBox="0 0 395.52 67.45084914022335" height="67.45084914022335" width="395.52" id="textblock"><g><svg viewBox="0 0 395.52 67.45084914022335" height="67.45084914022335" width="395.52"><g transform="matrix(1,0,0,1,0,0)"><svg width="395.52" viewBox="1.3 -37.1 282.02 48.1" height="67.45084914022335" data-palette-color="#e33e33"><path d="M11.9-5.1L11.9-5.1Q13.35-5.1 14.95-5.85 16.55-6.6 17.45-7.35L17.45-7.35 18.35-8.1 20.65-5.3Q20.15-4.45 19.1-3.35 18.05-2.25 16.98-1.48 15.9-0.7 14.13-0.08 12.35 0.55 10.45 0.55L10.45 0.55Q6.4 0.55 3.85-2.53 1.3-5.6 1.3-10.45L1.3-10.45Q1.3-16.55 4.85-21.15 8.4-25.75 13.15-25.75L13.15-25.75Q16.8-25.75 18.82-23.7 20.85-21.65 20.85-17.95L20.85-17.95Q20.85-15.75 20.1-12.95L20.1-12.95 19.1-11.9 6.6-10.75Q7.45-5.1 11.9-5.1ZM11.9-20.6L11.9-20.6Q9.7-20.6 8.2-18.82 6.7-17.05 6.45-14.3L6.45-14.3 14.95-15.35Q15.1-16.5 15.1-17.25L15.1-17.25Q15.1-20.6 11.9-20.6ZM39.7-12.65Q39.7-16.1 39.1-17.25 38.5-18.4 36.3-18.4 34.1-18.4 31.3-16.65L31.3-16.65 31.3-13 31.85-1.25 25.15 0 25.75-12.15Q25.55-18.85 24.65-24.15L24.65-24.15 30.7-25.45Q31.05-22.55 31.2-19.8L31.2-19.8Q31.95-20.8 32.9-21.78 33.85-22.75 35.9-23.98 37.95-25.2 40.22-25.2 42.5-25.2 44.05-23.43 45.6-21.65 45.6-18.6L45.6-18.6 45.3-13 45.85-1 39.1 0.25 39.7-12.65ZM49.6 4.95L49.6 4.95Q49.6 0.55 57.8-1.95L57.8-1.95Q55.85-2.95 55.85-4.55L55.85-4.55Q55.85-5.2 56.35-5.85 56.85-6.5 57.8-7.2L57.8-7.2 57.8-7.6Q54.2-7.6 52.07-9.6 49.95-11.6 49.95-14.95L49.95-14.95Q49.95-19.3 53.5-22.53 57.05-25.75 61.9-25.75L61.9-25.75Q63.15-25.75 65.55-25.25 67.95-24.75 70.25-24.75L70.25-24.75 74.1-24.75 73.6-20.4 69.85-20.85Q70.35-19.4 70.35-17.55 70.35-15.7 69.47-13.88 68.6-12.05 67.37-10.95 66.15-9.85 64.92-9.03 63.7-8.2 62.82-7.58 61.95-6.95 61.95-6.45L61.95-6.45Q61.95-5.5 63.95-4.8L63.95-4.8Q69.25-2.65 71.12-1.15 73 0.35 73 2.55L73 2.55Q73 6.25 69.27 8.63 65.55 11 60.4 11 55.25 11 52.42 9.35 49.6 7.7 49.6 4.95ZM64.7-16.05L64.7-16.05Q64.7-18.5 63.6-19.65 62.5-20.8 60.15-20.8L60.15-20.8Q55.6-20.8 55.6-16.32 55.6-11.85 60.45-11.85L60.45-11.85Q64.7-11.85 64.7-16.05ZM66.5 3.3L66.5 3.3Q66.5 2.4 65.55 1.63 64.6 0.85 62.15-0.2L62.15-0.2Q58.5 0.8 57.12 1.65 55.75 2.5 55.75 3.75 55.75 5 57.12 5.78 58.5 6.55 60.95 6.55 63.4 6.55 64.95 5.65 66.5 4.75 66.5 3.3ZM76.74-24.2L83.44-25.45 82.84-13 83.39-1.25 76.69 0 77.29-12.15 76.74-24.2ZM76.39-32.77Q76.39-34.45 77.69-35.77 78.99-37.1 80.69-37.1 82.39-37.1 83.29-36.18 84.19-35.25 84.19-33.4 84.19-31.55 82.92-30.23 81.64-28.9 79.97-28.9 78.29-28.9 77.34-30 76.39-31.1 76.39-32.77ZM103.44-12.65Q103.44-16.1 102.84-17.25 102.24-18.4 100.04-18.4 97.84-18.4 95.04-16.65L95.04-16.65 95.04-13 95.59-1.25 88.89 0 89.49-12.15Q89.29-18.85 88.39-24.15L88.39-24.15 94.44-25.45Q94.79-22.55 94.94-19.8L94.94-19.8Q95.69-20.8 96.64-21.78 97.59-22.75 99.64-23.98 101.69-25.2 103.97-25.2 106.24-25.2 107.79-23.43 109.34-21.65 109.34-18.6L109.34-18.6 109.04-13 109.59-1 102.84 0.25 103.44-12.65ZM124.09-5.1L124.09-5.1Q125.54-5.1 127.14-5.85 128.74-6.6 129.64-7.35L129.64-7.35 130.54-8.1 132.84-5.3Q132.34-4.45 131.29-3.35 130.24-2.25 129.16-1.48 128.09-0.7 126.31-0.08 124.54 0.55 122.64 0.55L122.64 0.55Q118.59 0.55 116.04-2.53 113.49-5.6 113.49-10.45L113.49-10.45Q113.49-16.55 117.04-21.15 120.59-25.75 125.34-25.75L125.34-25.75Q128.99-25.75 131.01-23.7 133.04-21.65 133.04-17.95L133.04-17.95Q133.04-15.75 132.29-12.95L132.29-12.95 131.29-11.9 118.79-10.75Q119.64-5.1 124.09-5.1ZM124.09-20.6L124.09-20.6Q121.89-20.6 120.39-18.82 118.89-17.05 118.64-14.3L118.64-14.3 127.14-15.35Q127.29-16.5 127.29-17.25L127.29-17.25Q127.29-20.6 124.09-20.6ZM146.39-5.1L146.39-5.1Q147.84-5.1 149.44-5.85 151.04-6.6 151.94-7.35L151.94-7.35 152.84-8.1 155.14-5.3Q154.64-4.45 153.59-3.35 152.54-2.25 151.46-1.48 150.39-0.7 148.61-0.08 146.84 0.55 144.94 0.55L144.94 0.55Q140.89 0.55 138.34-2.53 135.79-5.6 135.79-10.45L135.79-10.45Q135.79-16.55 139.34-21.15 142.89-25.75 147.64-25.75L147.64-25.75Q151.29-25.75 153.31-23.7 155.34-21.65 155.34-17.95L155.34-17.95Q155.34-15.75 154.59-12.95L154.59-12.95 153.59-11.9 141.09-10.75Q141.94-5.1 146.39-5.1ZM146.39-20.6L146.39-20.6Q144.19-20.6 142.69-18.82 141.19-17.05 140.94-14.3L140.94-14.3 149.44-15.35Q149.59-16.5 149.59-17.25L149.59-17.25Q149.59-20.6 146.39-20.6ZM159.13-24.15L159.13-24.15 165.18-25.45Q165.63-21.6 165.78-18.15L165.78-18.15Q170.33-25.2 174.33-25.2L174.33-25.2 173.78-17.4Q170.88-17.4 169.21-16.88 167.53-16.35 165.78-14.8L165.78-14.8 165.78-13 166.33-1.25 159.63 0 160.23-12.15Q160.03-18.85 159.13-24.15ZM185.03-4.65L185.03-4.65Q187.63-4.65 187.63-6.95L187.63-6.95Q187.63-7.75 186.51-8.45 185.38-9.15 183.76-9.85 182.13-10.55 180.51-11.43 178.88-12.3 177.76-13.85 176.63-15.4 176.63-17.4L176.63-17.4Q176.63-20.75 179.58-23.25 182.53-25.75 186.38-25.75L186.38-25.75Q188.18-25.75 189.91-25.33 191.63-24.9 193.23-24L193.23-24 189.88-17.9Q189.53-18.2 188.98-18.65 188.43-19.1 186.91-19.83 185.38-20.55 184.21-20.55 183.03-20.55 182.41-20.03 181.78-19.5 181.78-18.57 181.78-17.65 183.51-16.73 185.23-15.8 187.28-15.03 189.33-14.25 191.06-12.48 192.78-10.7 192.78-8.25L192.78-8.25Q192.78-4.75 189.91-2.1 187.03 0.55 183.28 0.55L183.28 0.55Q180.88 0.55 178.81-0.5 176.73-1.55 175.83-2.6L175.83-2.6 174.93-3.65 178.88-8.25Q179.18-7.85 179.73-7.25 180.28-6.65 181.91-5.65 183.53-4.65 185.03-4.65ZM204.33-24.15L204.33-24.15 210.38-25.45Q210.83-21.6 210.98-18.15L210.98-18.15Q215.53-25.2 219.53-25.2L219.53-25.2 218.98-17.4Q216.08-17.4 214.4-16.88 212.73-16.35 210.98-14.8L210.98-14.8 210.98-13 211.53-1.25 204.83 0 205.43-12.15Q205.23-18.85 204.33-24.15ZM227.67 0Q224.72 0 222.85-1.88 220.97-3.75 220.97-6.93 220.97-10.1 223.87-12.43 226.77-14.75 230.92-14.75L230.92-14.75 234.32-14.75 234.32-15.6Q234.32-18.05 233.32-18.95 232.32-19.85 229.57-19.85L229.57-19.85Q228.42-19.85 226.85-19.38 225.27-18.9 223.32-17.9L223.32-17.9 221.87-21.85Q224.02-23.35 227.1-24.55 230.17-25.75 232.17-25.75L232.17-25.75Q240.02-25.75 240.02-18.15L240.02-18.15 240.02-8.35Q240.02-5.55 241.77-2.1L241.77-2.1 236.47 0.15Q235.22-2.25 234.62-4.15L234.62-4.15Q231.87 0 227.67 0L227.67 0ZM229.77-5.1L229.77-5.1Q231.77-5.1 234.32-7.15L234.32-7.15 234.32-10.5Q231.67-11.1 230.02-11.1L230.02-11.1Q226.87-11.1 226.87-8.3L226.87-8.3Q226.87-6.85 227.67-5.98 228.47-5.1 229.77-5.1ZM254.72-19.25Q252.52-19.25 251.32-17.68 250.12-16.1 250.12-12.85 250.12-9.6 251.35-7.63 252.57-5.65 254.92-5.65L254.92-5.65Q256.12-5.65 257.27-6.4 258.42-7.15 259.02-7.9L259.02-7.9 259.57-8.7 262.07-6.1Q261.92-5.85 261.7-5.4 261.47-4.95 260.6-3.8 259.72-2.65 258.75-1.78 257.77-0.9 256.22-0.18 254.67 0.55 252.97 0.55L252.97 0.55Q249.22 0.55 246.87-2.5 244.52-5.55 244.52-10.45L244.52-10.45Q244.52-16.55 248.07-21.15 251.62-25.75 256.37-25.75L256.37-25.75Q257.82-25.75 259.27-25.33 260.72-24.9 262.22-24L262.22-24 258.72-17.85Q256.92-19.25 254.72-19.25ZM274.37-5.1L274.37-5.1Q275.82-5.1 277.42-5.85 279.02-6.6 279.92-7.35L279.92-7.35 280.82-8.1 283.12-5.3Q282.62-4.45 281.57-3.35 280.52-2.25 279.44-1.48 278.37-0.7 276.59-0.08 274.82 0.55 272.92 0.55L272.92 0.55Q268.87 0.55 266.32-2.53 263.77-5.6 263.77-10.45L263.77-10.45Q263.77-16.55 267.32-21.15 270.87-25.75 275.62-25.75L275.62-25.75Q279.27-25.75 281.29-23.7 283.32-21.65 283.32-17.95L283.32-17.95Q283.32-15.75 282.57-12.95L282.57-12.95 281.57-11.9 269.07-10.75Q269.92-5.1 274.37-5.1ZM274.37-20.6L274.37-20.6Q272.17-20.6 270.67-18.82 269.17-17.05 268.92-14.3L268.92-14.3 277.42-15.35Q277.57-16.5 277.57-17.25L277.57-17.25Q277.57-20.6 274.37-20.6Z" opacity="1" transform="matrix(1,0,0,1,0,0)" fill="#e33e33" class="wordmark-text-0" data-fill-palette-color="primary" id="text-0"></path></svg></g></svg></g></svg></g></svg></g><g transform="matrix(1,0,0,1,115.64363392122367,0)"><svg viewBox="0 0 164.23273215755265 164.23273215755265" height="164.23273215755265" width="164.23273215755265"><g><svg></svg></g><g id="icon-0"><svg viewBox="0 0 164.23273215755265 164.23273215755265" height="164.23273215755265" width="164.23273215755265"><g><path d="M0 82.116c0-45.352 36.765-82.116 82.116-82.116 45.352 0 82.116 36.765 82.117 82.116 0 45.352-36.765 82.116-82.117 82.117-45.352 0-82.116-36.765-82.116-82.117zM82.116 158.15c41.992 0 76.034-34.041 76.034-76.034 0-41.992-34.041-76.034-76.034-76.033-41.992 0-76.034 34.041-76.033 76.033 0 41.992 34.041 76.034 76.033 76.034z" data-fill-palette-color="accent" fill="#e33e33" stroke="transparent"></path></g><g transform="matrix(1,0,0,1,34.595776169563074,62.113376230534)"><svg viewBox="0 0 95.0411798184265 40.00597969648465" height="40.00597969648465" width="95.0411798184265"><g><svg xmlns="http://www.w3.org/2000/svg" xmlns:xlink="http://www.w3.org/1999/xlink" version="1.1" x="0" y="0" viewBox="1.78 15.805 48.44 20.39" enable-background="new 0 0 52 52" xml:space="preserve" height="40.00597969648465" width="95.0411798184265" class="icon-dxe-0" data-fill-palette-color="accent" id="dxe-0"><g fill="#e33e33" data-fill-palette-color="accent"><path d="M13.22 24.195C9.91 24.195 7.22 26.885 7.22 30.195S9.91 36.195 13.22 36.195 19.22 33.505 19.22 30.195 16.53 24.195 13.22 24.195M14.22 31.195H12.22V29.194H14.22z" fill="#e33e33" data-fill-palette-color="accent"></path><path d="M39.22 24.195C35.91 24.195 33.22 26.885 33.22 30.195S35.91 36.195 39.22 36.195 45.22 33.505 45.22 30.195 42.53 24.195 39.22 24.195M40.22 31.195H38.22V29.194H40.22z" fill="#e33e33" data-fill-palette-color="accent"></path><path d="M5.613 27.73C3.18 30.169 2.353 32.27 2.28 32.456L1.78 33.805H6.09A7.94 7.94 0 0 1 5.613 27.731" fill="#e33e33" data-fill-palette-color="accent"></path><g fill="#e33e33" data-fill-palette-color="accent"><path d="M50.22 15.805H39.22V19.655L30.92 25.195H24.22V20.065L23.1 20.205C19.666 20.623 16.78 21.367 14.35 22.285 18.227 22.835 21.22 26.168 21.22 30.194A7.94 7.94 0 0 1 20.35 33.805H32.09A7.94 7.94 0 0 1 31.22 30.195C31.22 25.784 34.809 22.195 39.22 22.195S47.22 25.784 47.22 30.195A7.94 7.94 0 0 1 46.35 33.805H50.22z" fill="#e33e33" data-fill-palette-color="accent"></path></g></g></svg></g></svg></g></svg></g></svg></g><g></g></svg></g><defs></defs></svg><rect width="371.01016411470124" height="247.2" fill="none" stroke="none" visibility="hidden"></rect></g></svg></g></svg>